<svg xmlns="http://www.w3.org/2000/svg" xmlns:xlink="http://www.w3.org/1999/xlink" width="504" height="433pt" viewBox="0 0 378 433"><g id="graph0" class="graph" transform="scale(1 1) rotate(0) translate(4 429)"><title>unnamed</title><polygon fill="#fff" stroke="none" points="-4 4 -4 -429 374 -429 374 4 -4 4"/><g id="node1" class="node"><title>Node0xbf8b980</title><polygon fill="none" stroke="#000" points="136 -82 136 -118 234 -118 234 -82 136 -82"/><text x="144" y="-96.3" font-family="Times,serif" font-size="14" text-anchor="start">[B0 (EXIT)]</text></g><g id="node2" class="node"><title>Node0xbf8ba58</title><polygon fill="none" stroke="#000" points="179 -.5 179 -36.5 233 -36.5 233 -.5 179 -.5"/><text x="187" y="-14.8" font-family="Times,serif" font-size="14" text-anchor="start">[B1]</text></g><g id="node3" class="node"><title>Node0xbf8bc08</title><polygon fill="none" stroke="#000" points="0 -163.5 0 -261.5 370 -261.5 370 -163.5 0 -163.5"/><text x="8" y="-246.3" font-family="Times,serif" font-size="14" text-anchor="start">[B3]</text><text x="8" y="-231.3" font-family="Times,serif" font-size="14" text-anchor="start">1: i</text><text x="8" y="-216.3" font-family="Times,serif" font-size="14" text-anchor="start">2: [B3.1] (ImplicitCastExpr, LValueToRValue, int)</text><text x="8" y="-201.3" font-family="Times,serif" font-size="14" text-anchor="start">3: 10</text><text x="8" y="-186.3" font-family="Times,serif" font-size="14" text-anchor="start">4: [B3.2] &lt;= [B3.3]</text><text x="8" y="-171.3" font-family="Times,serif" font-size="14" text-anchor="start">T: while [B3.4]</text></g><g id="edge1" class="edge"><title>Node0xbf8ba58-&gt;Node0xbf8bc08</title><path fill="none" stroke="#000" d="M178.733,-29.8807C160.476,-38.4344 137.868,-52.5142 127,-73 113.115,-99.1723 122.99,-129.404 138.265,-154.932"/><polygon fill="#000" stroke="#000" points="135.319 -156.821 143.626 -163.396 141.232 -153.075 135.319 -156.821"/></g><g id="edge4" class="edge"><title>Node0xbf8bc08-&gt;Node0xbf8b980</title><path fill="none" stroke="#000" d="M185,-163.355C185,-151.355 185,-138.9 185,-128.306"/><polygon fill="#000" stroke="#000" points="188.5 -128.037 185 -118.037 181.5 -128.037 188.5 -128.037"/></g><g id="node4" class="node"><title>Node0xbf8bb30</title><polygon fill="none" stroke="#000" points="251.5 -73.5 251.5 -126.5 358.5 -126.5 358.5 -73.5 251.5 -73.5"/><text x="259.5" y="-111.3" font-family="Times,serif" font-size="14" text-anchor="start">[B2]</text><text x="259.5" y="-96.3" font-family="Times,serif" font-size="14" text-anchor="start">1: i</text><text x="259.5" y="-81.3" font-family="Times,serif" font-size="14" text-anchor="start">2: [B2.1]++</text></g><g id="edge3" class="edge"><title>Node0xbf8bc08-&gt;Node0xbf8bb30</title><path fill="none" stroke="#000" d="M237.285,-163.355C248.257,-153.251 259.579,-142.826 269.75,-133.459"/><polygon fill="#000" stroke="#000" points="272.293 -135.875 277.279 -126.527 267.552 -130.726 272.293 -135.875"/></g><g id="edge2" class="edge"><title>Node0xbf8bb30-&gt;Node0xbf8ba58</title><path fill="none" stroke="#000" d="M273.131,-73.4081C260.914,-63.5979 247.05,-52.4642 235.105,-42.8725"/><polygon fill="#000" stroke="#000" points="237.175 -40.046 227.187 -36.514 232.792 -45.504 237.175 -40.046"/></g><g id="node5" class="node"><title>Node0xbf8bd00</title><polygon fill="none" stroke="#000" points="134 -298.5 134 -351.5 236 -351.5 236 -298.5 134 -298.5"/><text x="142" y="-336.3" font-family="Times,serif" font-size="14" text-anchor="start">[B4]</text><text x="142" y="-321.3" font-family="Times,serif" font-size="14" text-anchor="start">1: 0</text><text x="142" y="-306.3" font-family="Times,serif" font-size="14" text-anchor="start">2: int i = 0;</text></g><g id="edge5" class="edge"><title>Node0xbf8bd00-&gt;Node0xbf8bc08</title><path fill="none" stroke="#000" d="M185,-298.371C185,-290.318 185,-281.073 185,-271.714"/><polygon fill="#000" stroke="#000" points="188.5 -271.565 185 -261.565 181.5 -271.565 188.5 -271.565"/></g><g id="node6" class="node"><title>Node0xbf8bdf8</title><polygon fill="none" stroke="#000" points="128.5 -388.5 128.5 -424.5 241.5 -424.5 241.5 -388.5 128.5 -388.5"/><text x="136.5" y="-402.8" font-family="Times,serif" font-size="14" text-anchor="start">[B5 (ENTRY)]</text></g><g id="edge6" class="edge"><title>Node0xbf8bdf8-&gt;Node0xbf8bd00</title><path fill="none" stroke="#000" d="M185,-388.25C185,-380.486 185,-371.014 185,-361.825"/><polygon fill="#000" stroke="#000" points="188.5 -361.676 185 -351.676 181.5 -361.676 188.5 -361.676"/></g></g></svg>