<svg xmlns="http://www.w3.org/2000/svg" xmlns:xlink="http://www.w3.org/1999/xlink" width="260pt" height="404pt" viewBox="0 0 259.75 404"><g id="graph0" class="graph" transform="scale(1 1) rotate(0) translate(4 400)"><title>%3</title><polygon fill="#fff" stroke="none" points="-4 4 -4 -400 255.751 -400 255.751 4 -4 4"/><g id="node1" class="node"><title>4</title><ellipse cx="47" cy="-378" fill="red" stroke="red" rx="27" ry="18"/><text x="47" y="-374.3" font-family="Times,serif" font-size="14" text-anchor="middle">4</text></g><g id="node4" class="node"><title>1</title><ellipse cx="27" cy="-306" fill="#ff0" stroke="#ff0" rx="27" ry="18"/><text x="27" y="-302.3" font-family="Times,serif" font-size="14" text-anchor="middle">1</text></g><g id="edge22" class="edge"><title>4-&gt;1</title><path fill="none" stroke="#000" d="M42.1586,-360.055C39.8984,-352.145 37.1542,-342.54 34.6251,-333.688"/><polygon fill="#000" stroke="#000" points="37.91 -332.443 31.797 -323.789 31.179 -334.366 37.91 -332.443"/></g><g id="node6" class="node"><title>5</title><ellipse cx="137" cy="-234" fill="#ff0" stroke="#ff0" rx="27" ry="18"/><text x="137" y="-230.3" font-family="Times,serif" font-size="14" text-anchor="middle">5</text></g><g id="edge4" class="edge"><title>4-&gt;5</title><path fill="none" stroke="#000" d="M57.1528,-361.253C63.9297,-350.723 73.0271,-336.549 81,-324 94.8388,-302.218 110.469,-277.355 121.693,-259.454"/><polygon fill="#000" stroke="#000" points="124.784 -261.114 127.128 -250.782 118.852 -257.397 124.784 -261.114"/></g><g id="node2" class="node"><title>2</title><ellipse cx="193" cy="-306" fill="#000" stroke="#000" rx="27" ry="18"/><text x="193" y="-302.3" font-family="Times,serif" font-size="14" text-anchor="middle">2</text></g><g id="edge1" class="edge"><title>2-&gt;2</title><path fill="none" stroke="#000" d="M212.895,-318.432C225.688,-321.675 238,-317.531 238,-306 238,-297.622 231.501,-293.143 223.039,-292.564"/><polygon fill="#000" stroke="#000" points="222.502 -289.1 212.895 -293.568 223.191 -296.066 222.502 -289.1"/></g><g id="node5" class="node"><title>6</title><ellipse cx="81" cy="-162" fill="#ff0" stroke="#ff0" rx="27" ry="18"/><text x="81" y="-158.3" font-family="Times,serif" font-size="14" text-anchor="middle">6</text></g><g id="edge9" class="edge"><title>2-&gt;6</title><path fill="none" stroke="#000" d="M193.114,-287.931C192.413,-268.683 188.679,-237.298 173,-216 158.537,-196.354 134.441,-182.857 114.536,-174.4"/><polygon fill="#000" stroke="#000" points="115.747 -171.115 105.162 -170.649 113.146 -177.614 115.747 -171.115"/></g><g id="edge17" class="edge"><title>2-&gt;5</title><path fill="none" stroke="#000" d="M180.849,-289.811C173.437,-280.546 163.816,-268.52 155.475,-258.094"/><polygon fill="#000" stroke="#000" points="158.107 -255.782 149.127 -250.159 152.641 -260.154 158.107 -255.782"/></g><g id="node7" class="node"><title>7</title><ellipse cx="117" cy="-90" fill="#ff0" stroke="#ff0" rx="27" ry="18"/><text x="117" y="-86.3" font-family="Times,serif" font-size="14" text-anchor="middle">7</text></g><g id="edge18" class="edge"><title>2-&gt;7</title><path fill="none" stroke="#000" d="M196.001,-287.896C198.551,-269.698 200.822,-240.246 194,-216 182.933,-176.666 155.531,-137.577 136.593,-113.85"/><polygon fill="#000" stroke="#000" points="139.081 -111.363 130.044 -105.832 133.659 -115.791 139.081 -111.363"/></g><g id="node3" class="node"><title>0</title><ellipse cx="138" cy="-378" fill="orange" stroke="orange" rx="27" ry="18"/><text x="138" y="-374.3" font-family="Times,serif" font-size="14" text-anchor="middle">0</text></g><g id="edge3" class="edge"><title>0-&gt;1</title><path fill="none" stroke="#000" d="M118.918,-364.967C101.287,-353.848 74.8775,-337.193 54.8841,-324.585"/><polygon fill="#000" stroke="#000" points="56.53 -321.484 46.204 -319.111 52.796 -327.405 56.53 -321.484"/></g><g id="edge20" class="edge"><title>0-&gt;5</title><path fill="none" stroke="#000" d="M137.879,-359.871C137.709,-335.67 137.396,-291.211 137.193,-262.393"/><polygon fill="#000" stroke="#000" points="140.691 -262.164 137.121 -252.189 133.692 -262.214 140.691 -262.164"/></g><g id="edge15" class="edge"><title>0-&gt;7</title><path fill="none" stroke="#000" d="M163.982,-372.499C190.072,-366.446 228.919,-352.897 247,-324 255.487,-310.436 250.321,-303.651 247,-288 232.461,-219.489 225.731,-199.49 183,-144 172.437,-130.283 157.618,-117.966 144.698,-108.666"/><polygon fill="#000" stroke="#000" points="146.345 -105.549 136.132 -102.73 142.357 -111.303 146.345 -105.549"/></g><g id="edge6" class="edge"><title>1-&gt;1</title><path fill="none" stroke="#000" d="M46.895,-318.432C59.688,-321.675 72,-317.531 72,-306 72,-297.622 65.5006,-293.143 57.0395,-292.564"/><polygon fill="#000" stroke="#000" points="56.502 -289.1 46.895 -293.568 57.191 -296.066 56.502 -289.1"/></g><g id="edge12" class="edge"><title>1-&gt;5</title><path fill="none" stroke="#000" d="M46.1605,-292.807C63.6689,-281.665 89.7595,-265.062 109.493,-252.504"/><polygon fill="#000" stroke="#000" points="111.501 -255.375 118.059 -247.053 107.743 -249.469 111.501 -255.375"/></g><g id="edge13" class="edge"><title>1-&gt;7</title><path fill="none" stroke="#000" d="M14.6873,-289.558C3.44395,-259.345 -0.290862,-191.248 27,-144 38.7284,-123.695 61.6887,-108.898 82.2391,-100.179"/><polygon fill="#000" stroke="#000" points="83.702 -103.366 91.767 -96.496 81.178 -96.837 83.702 -103.366"/></g><g id="edge24" class="edge"><title>1-&gt;7</title><path fill="none" stroke="#000" d="M35.1545,-288.611C39.3702,-257.943 35.9905,-190.761 63,-144 70.6711,-130.719 83.1473,-119.794 94.5412,-111.386"/><polygon fill="#000" stroke="#000" points="96.797 -114.077 102.946 -105.449 92.759 -108.36 96.797 -114.077"/></g><g id="edge5" class="edge"><title>6-&gt;1</title><path fill="none" stroke="#000" d="M70.5126,-178.88C58.6537,-202.954 40.8303,-248.978 31.7516,-278.271"/><polygon fill="#000" stroke="#000" points="28.392 -277.29 28.929 -287.871 35.108 -279.265 28.392 -277.29"/></g><g id="edge14" class="edge"><title>6-&gt;1</title><path fill="none" stroke="#000" d="M79.0696,-180.133C72.2446,-204.988 54.906,-251.204 41.8379,-279.904"/><polygon fill="#000" stroke="#000" points="38.524 -278.724 37.418 -289.261 44.854 -281.714 38.524 -278.724"/></g><g id="edge19" class="edge"><title>6-&gt;6</title><path fill="none" stroke="#000" d="M100.895,-174.432C113.688,-177.675 126,-173.531 126,-162 126,-153.622 119.501,-149.143 111.039,-148.564"/><polygon fill="#000" stroke="#000" points="110.502 -145.1 100.895 -149.568 111.191 -152.066 110.502 -145.1"/></g><g id="edge10" class="edge"><title>6-&gt;5</title><path fill="none" stroke="#000" d="M97.3991,-176.65C105.817,-185.629 115.763,-197.642 123.701,-208.27"/><polygon fill="#000" stroke="#000" points="120.882 -210.345 129.569 -216.411 126.561 -206.252 120.882 -210.345"/></g><g id="edge8" class="edge"><title>6-&gt;7</title><path fill="none" stroke="#000" d="M89.3496,-144.765C93.7115,-136.283 99.1469,-125.714 104.041,-116.197"/><polygon fill="#000" stroke="#000" points="107.235 -117.641 108.696 -107.147 101.01 -114.439 107.235 -117.641"/></g><g id="edge7" class="edge"><title>5-&gt;6</title><path fill="none" stroke="#000" d="M120.745,-219.503C112.266,-210.475 102.21,-198.33 94.212,-187.613"/><polygon fill="#000" stroke="#000" points="96.992 -185.484 88.309 -179.412 91.31 -189.573 96.992 -185.484"/></g><g id="node8" class="node"><title>3</title><ellipse cx="117" cy="-18" fill="#ff0" stroke="#ff0" rx="27" ry="18"/><text x="117" y="-14.3" font-family="Times,serif" font-size="14" text-anchor="middle">3</text></g><g id="edge21" class="edge"><title>5-&gt;3</title><path fill="none" stroke="#000" d="M142.921,-216.116C152.447,-186.316 168.604,-122.743 153,-72 149.714,-61.3149 143.46,-50.851 137.075,-42.0814"/><polygon fill="#000" stroke="#000" points="139.646 -39.686 130.75 -33.931 134.116 -43.977 139.646 -39.686"/></g><g id="edge11" class="edge"><title>7-&gt;1</title><path fill="none" stroke="#000" d="M95.1634,-100.897C78.4584,-109.7 56.4121,-124.242 45,-144 20.882,-185.755 20.9949,-243.793 23.7006,-277.576"/><polygon fill="#000" stroke="#000" points="20.226 -278.011 24.643 -287.641 27.195 -277.359 20.226 -278.011"/></g><g id="edge23" class="edge"><title>7-&gt;5</title><path fill="none" stroke="#000" d="M124.191,-107.838C128.194,-118.087 132.801,-131.56 135,-144 138.609,-164.418 138.984,-187.878 138.524,-205.584"/><polygon fill="#000" stroke="#000" points="135.019 -205.665 138.152 -215.786 142.015 -205.921 135.019 -205.665"/></g><g id="edge2" class="edge"><title>7-&gt;3</title><path fill="none" stroke="#000" d="M111.16,-72.411C110.297,-64.507 110.048,-54.8518 110.412,-45.9352"/><polygon fill="#000" stroke="#000" points="113.903 -46.179 111.121 -35.956 106.921 -45.683 113.903 -46.179"/></g><g id="edge16" class="edge"><title>3-&gt;7</title><path fill="none" stroke="#000" d="M122.879,-35.9562C123.714,-43.8272 123.948,-53.3739 123.583,-62.1869"/><polygon fill="#000" stroke="#000" points="120.074 -62.184 122.84 -72.411 127.056 -62.691 120.074 -62.184"/></g></g></svg>